<?xml version="1.0" encoding="utf-8"?>
<!-- Generator: Adobe Illustrator 16.0.0, SVG Export Plug-In . SVG Version: 6.00 Build 0)  -->
<!DOCTYPE svg PUBLIC "-//W3C//DTD SVG 1.1//EN" "http://www.w3.org/Graphics/SVG/1.1/DTD/svg11.dtd">
<svg version="1.1" id="Layer_1" xmlns="http://www.w3.org/2000/svg" xmlns:xlink="http://www.w3.org/1999/xlink" x="0px" y="0px"
	 width="36.912px" height="36.912px" viewBox="0 0 36.912 36.912" enable-background="new 0 0 36.912 36.912" xml:space="preserve">
<g>
	<circle fill="#FFFFFF" cx="18.456" cy="18.456" r="18.456"/>
	<g>
		<path fill="#010101" d="M7.128,23.159c0.055,0,0.101-0.045,0.108-0.107l0.296-2.346l-0.295-2.398
			c-0.009-0.062-0.055-0.108-0.109-0.108c-0.056,0-0.104,0.046-0.11,0.108l-0.26,2.398l0.26,2.344
			C7.024,23.114,7.072,23.159,7.128,23.159z"/>
		<path fill="#010101" d="M6.152,22.267c0.053,0,0.097-0.041,0.104-0.104l0.229-1.457l-0.229-1.484
			c-0.008-0.061-0.052-0.104-0.104-0.104c-0.056,0-0.1,0.043-0.106,0.105l-0.192,1.482l0.192,1.457
			C6.053,22.224,6.097,22.267,6.152,22.267z"/>
		<path fill="#010101" d="M8.295,17.862c-0.008-0.077-0.063-0.133-0.133-0.133c-0.068,0-0.125,0.056-0.131,0.133l-0.247,2.844
			l0.247,2.74c0.006,0.077,0.062,0.131,0.131,0.131c0.069,0,0.125-0.054,0.133-0.131l0.279-2.74L8.295,17.862z"/>
		<path fill="#010101" d="M9.208,23.688c0.081,0,0.146-0.066,0.155-0.154l0.264-2.828l-0.264-2.924
			c-0.009-0.088-0.074-0.153-0.155-0.153c-0.082,0-0.148,0.065-0.154,0.154L8.82,20.706l0.233,2.828
			C9.06,23.622,9.126,23.688,9.208,23.688z"/>
		<path fill="#010101" d="M10.262,23.734c0.094,0,0.169-0.076,0.178-0.177h-0.001l0.249-2.852l-0.249-2.712
			c-0.008-0.101-0.083-0.177-0.177-0.177c-0.097,0-0.172,0.076-0.178,0.178l-0.22,2.711l0.22,2.852
			C10.09,23.658,10.165,23.734,10.262,23.734z"/>
		<path fill="#010101" d="M11.756,20.708l-0.233-4.412c-0.007-0.111-0.094-0.2-0.2-0.2s-0.193,0.089-0.199,0.2l-0.207,4.412
			l0.207,2.85c0.006,0.112,0.093,0.201,0.199,0.201s0.193-0.089,0.2-0.201l0,0L11.756,20.708z"/>
		<path fill="#010101" d="M12.394,23.763c0.117,0,0.216-0.098,0.222-0.223v0.003l0.218-2.834l-0.218-5.422
			c-0.006-0.124-0.104-0.222-0.222-0.222c-0.12,0-0.218,0.098-0.224,0.222l-0.192,5.422l0.193,2.832
			C12.176,23.665,12.273,23.763,12.394,23.763z"/>
		<path fill="#010101" d="M13.472,14.59c-0.133,0-0.239,0.109-0.245,0.246l-0.179,5.873l0.179,2.804
			c0.006,0.137,0.112,0.244,0.245,0.244c0.132,0,0.24-0.107,0.244-0.245v0.001l0.203-2.804l-0.203-5.873
			C13.712,14.697,13.604,14.59,13.472,14.59z"/>
		<path fill="#010101" d="M14.559,23.763c0.146,0,0.262-0.117,0.268-0.27v0.002l0.188-2.786l-0.188-6.07
			c-0.006-0.151-0.122-0.269-0.268-0.269c-0.146,0-0.265,0.117-0.266,0.269l-0.169,6.07l0.169,2.786
			C14.294,23.646,14.412,23.763,14.559,23.763z"/>
		<path fill="#010101" d="M15.655,23.761c0.156,0,0.284-0.129,0.289-0.293v0.003l0.172-2.762l-0.172-5.915
			c-0.005-0.164-0.133-0.291-0.289-0.291c-0.159,0-0.286,0.127-0.291,0.291l-0.151,5.915l0.152,2.761
			C15.369,23.632,15.496,23.761,15.655,23.761z"/>
		<path fill="#010101" d="M17.227,20.709l-0.156-5.7c-0.003-0.176-0.141-0.312-0.312-0.312s-0.31,0.137-0.312,0.314l-0.141,5.698
			l0.141,2.743c0.003,0.175,0.142,0.312,0.312,0.312s0.309-0.138,0.312-0.314v0.002L17.227,20.709z"/>
		<path fill="#010101" d="M17.871,23.771c0.182,0,0.331-0.15,0.334-0.338v0.003l0.143-2.725l-0.143-6.783
			c-0.003-0.187-0.152-0.337-0.334-0.337s-0.331,0.15-0.335,0.338l-0.126,6.78l0.126,2.727C17.54,23.62,17.689,23.771,17.871,23.771
			z"/>
		<path fill="#010101" d="M18.979,12.953c-0.196,0-0.354,0.162-0.358,0.36l-0.146,7.398l0.147,2.684
			c0.003,0.196,0.161,0.358,0.357,0.358c0.192,0,0.354-0.162,0.355-0.362v0.004l0.161-2.684l-0.161-7.398
			C19.334,13.115,19.172,12.953,18.979,12.953z"/>
		<path fill="#010101" d="M19.994,23.774c0.007,0,8.935,0.004,8.99,0.004c1.793,0,3.245-1.471,3.245-3.285
			c0-1.812-1.452-3.283-3.245-3.283c-0.444,0-0.867,0.09-1.254,0.255c-0.257-2.96-2.71-5.282-5.701-5.282
			c-0.73,0-1.444,0.146-2.074,0.394c-0.246,0.096-0.312,0.194-0.312,0.387v10.421C19.646,23.585,19.799,23.753,19.994,23.774z"/>
	</g>
</g>
</svg>
