<?xml version="1.0" encoding="utf-8"?>
<!-- Generator: Adobe Illustrator 16.0.0, SVG Export Plug-In . SVG Version: 6.00 Build 0)  -->
<!DOCTYPE svg PUBLIC "-//W3C//DTD SVG 1.1//EN" "http://www.w3.org/Graphics/SVG/1.1/DTD/svg11.dtd">
<svg version="1.1" id="Layer_1" xmlns="http://www.w3.org/2000/svg" xmlns:xlink="http://www.w3.org/1999/xlink" x="0px" y="0px"
	 width="685px" height="250px" viewBox="0 0 685 250" enable-background="new 0 0 685 250" xml:space="preserve">
<path d="M135.914,120.791H70.461c1.059,17.641,9.88,27.521,25.405,27.521c12.526,0,20.818-7.057,24.523-17.818l14.643,4.939
	c-5.645,17.29-20.818,27.522-39.695,27.522c-25.758,0-42.165-18.172-42.165-46.577c0-28.403,15.172-48.339,42.871-48.339
	C123.212,68.04,138.207,87.798,135.914,120.791 M70.638,106.853h48.692c-0.882-15.525-9.35-24.346-23.993-24.346
	C79.988,82.506,72.049,92.738,70.638,106.853"/>
<path d="M368.612,161.19c-1.059-2.117-2.294-5.822-2.822-10.409c-5.47,7.41-15.173,12.174-27.699,12.174
	c-18.7,0-31.049-10.762-31.049-28.228c0-16.584,10.938-24.17,27.698-27.169l22.934-4.234c4.764-0.706,7.058-1.588,7.058-7.41
	c0-7.586-4.233-13.585-18.523-13.585c-12.704,0-18.878,5.469-19.938,16.937l-16.76-0.53c2.117-21.346,16.76-30.697,37.578-30.697
	c32.814,0,34.05,21.17,34.05,37.049v29.462c0,8.821,0.53,16.584,2.822,26.64H368.612z M364.731,122.73v-7.41
	c-2.117,0.883-4.588,1.412-7.41,2.117l-17.113,3.353c-13.232,2.469-16.054,8.115-16.054,14.113c0,8.821,7.056,13.585,16.76,13.585
	C353.44,148.488,364.731,140.726,364.731,122.73"/>
<path d="M268.41,210.355c-0.083,0-0.166-0.001-0.25-0.003c-6.834-0.171-9.432-7.743-10.286-10.231
	c-1.204-3.512-2.155-7.976-2.543-11.94c-0.34-3.491-1.642-23.897-3.289-49.733c-1.146-17.962-2.527-39.628-3.622-55.948
	c-5.022,28.347-13.335,74.994-16.05,88.847c-0.78,3.979-3.149,16.062-12.404,16.063c-0.035,0-0.069-0.001-0.105-0.001
	c-7.389-0.071-11.521-8.346-12.496-13.889c-0.575-3.273-1.144-10.761-2.1-23.715c-1.389-18.804-3.267-44.24-5.807-57.514
	c-0.393,1.326-0.753,2.68-0.986,3.772c-0.452,2.116-0.949,5.52-1.578,9.828c-0.938,6.43-2.224,15.236-4.328,26.564
	c-3.696,19.904-6.489,28.285-14.222,28.653c-7.145,0.341-10.076-7.506-11.657-11.721c-1.831-4.883-3.82-11.714-6.231-20.138
	c-2.503-8.743-8.029-8.692-8.094-8.703l-0.339,0.008h-7.167v-13.87h7.034c5.781-0.182,17.527,3.469,21.901,18.749
	c1.048,3.662,2.331,8.144,3.593,12.218c0.468-2.151,0.983-4.703,1.546-7.729c2.054-11.065,3.317-19.717,4.239-26.036
	c0.692-4.738,1.192-8.161,1.738-10.721c0.02-0.094,2.169-9.764,4.929-13.788c4.501-6.563,9.184-7.206,12.319-6.586
	c7.637,1.503,9.714,11.143,10.496,14.772c2.929,13.592,4.962,41.119,6.446,61.219c0.342,4.635,0.676,9.153,0.983,12.947
	c4.89-26.191,16.507-91.923,18.306-102.166c1.71-9.728,7.182-13.183,11.79-13.183c0.049,0,0.097,0,0.147,0.001
	c5.079,0.081,9.202,4.168,10.027,9.939c0.592,4.137,2.667,36.282,5.534,81.242c1.019,15.974,1.999,31.349,2.627,40.656
	c3.221-20.872,6.001-35.672,7.846-44.751c1.653-8.13,3.694-16.438,8.859-21.154c2.829-2.585,8.567-5.602,15.425-5.602v13.87
	c-2.926,0-5.394,1.355-6.071,1.973c-2.26,2.064-4.033,10.785-4.616,13.65c-2.052,10.095-5.27,27.341-8.975,52.316
	C279.411,199.099,277.014,210.355,268.41,210.355"/>
<path d="M474.838,81.695c0-5.886,3.416-9.696,8.986-9.696c3.863,0,6.701,1.813,7.804,4.914l-3.337,1.025
	c-0.735-1.682-2.181-2.733-4.414-2.733c-3.416,0-5.387,2.47-5.387,6.359c0,3.757,1.866,6.359,5.387,6.359
	c2.496,0,4.125-1.288,4.65-3.39l3.521,0.578c-0.814,3.836-3.837,6.017-8.225,6.017C478.122,91.128,474.838,87.449,474.838,81.695"/>
<path d="M497.535,81.563c0-5.649,3.494-9.564,8.986-9.564c5.465,0,8.96,3.863,8.96,9.512s-3.495,9.617-8.96,9.617
	C501.029,91.128,497.535,87.213,497.535,81.563 M511.829,81.538c0-3.731-1.761-6.385-5.308-6.385c-3.573,0-5.334,2.68-5.334,6.359
	c0,3.757,1.761,6.463,5.334,6.463C510.068,87.975,511.829,85.453,511.829,81.538"/>
<polygon points="525.775,87.607 534.762,87.607 534.762,90.839 522.202,90.839 522.202,72.289 525.775,72.289 "/>
<polygon points="544.716,87.607 554.438,87.607 554.438,90.839 541.143,90.839 541.143,72.289 554.097,72.289 554.097,75.521 
	544.716,75.521 544.716,79.62 553.15,79.62 553.15,82.852 544.716,82.852 "/>
<path d="M578.684,72.289c5.15,0,8.277,3.311,8.277,9.039c0,5.965-2.417,9.512-8.803,9.512h-6.543V72.289H578.684z M577.816,87.607
	c3.705,0,5.491-1.603,5.491-6.28c0-3.941-1.629-5.807-5.096-5.807h-3.023v12.087H577.816z"/>
<polygon points="597.229,87.607 606.952,87.607 606.952,90.839 593.656,90.839 593.656,72.289 606.61,72.289 606.61,75.521 
	597.229,75.521 597.229,79.62 605.665,79.62 605.665,82.852 597.229,82.852 "/>
<path d="M612.885,85.243l3.573-0.762c0.315,2.128,1.577,3.547,4.151,3.547c2.076,0,3.259-0.919,3.259-2.365
	c0-3.783-10.379-1.55-10.379-8.303c0-3.389,2.627-5.36,6.937-5.36c3.522,0,6.229,1.787,6.753,4.808l-3.337,1.052
	c-0.447-1.656-1.551-2.838-3.626-2.838c-1.866,0-3.074,0.736-3.074,1.997c0,3.626,10.379,1.235,10.379,8.46
	c0,3.443-2.339,5.65-6.937,5.65C616.406,91.128,613.357,89.158,612.885,85.243"/>
<polygon points="470.06,107.589 474.685,107.589 474.685,126.14 471.164,126.14 471.164,113.922 466.645,126.14 463.885,126.14 
	459.366,113.948 459.366,126.14 455.845,126.14 455.845,107.589 460.443,107.589 465.277,120.517 "/>
<path d="M482.403,119.466v-11.877h3.574v11.456c0,2.549,1.235,4.151,3.757,4.151c2.654,0,3.652-1.759,3.652-4.151v-11.456h3.573
	v11.692c0,4.231-2.47,7.148-7.278,7.148C485.216,126.429,482.403,123.986,482.403,119.466"/>
<path d="M503.629,120.543l3.573-0.762c0.315,2.128,1.577,3.547,4.151,3.547c2.076,0,3.259-0.92,3.259-2.365
	c0-3.783-10.379-1.55-10.379-8.303c0-3.389,2.627-5.36,6.937-5.36c3.522,0,6.229,1.787,6.753,4.808l-3.337,1.052
	c-0.447-1.656-1.551-2.838-3.626-2.838c-1.866,0-3.074,0.736-3.074,1.997c0,3.626,10.379,1.235,10.379,8.46
	c0,3.443-2.339,5.65-6.937,5.65C507.15,126.429,504.102,124.458,503.629,120.543"/>
<rect x="524.96" y="107.589" width="3.573" height="18.551"/>
<path d="M553.939,125.036l-2.443,2.339l-2.365-2.26c-1.339,0.841-2.995,1.313-4.887,1.313c-5.492,0-8.986-3.916-8.986-9.564
	c0-5.65,3.494-9.565,8.986-9.565c5.465,0,8.961,3.863,8.961,9.513c0,2.312-0.579,4.335-1.656,5.938L553.939,125.036z
	 M546.688,122.776l-1.682-1.603l2.47-2.365l1.498,1.419c0.395-0.946,0.578-2.076,0.578-3.389c0-3.731-1.76-6.385-5.308-6.385
	c-3.573,0-5.334,2.68-5.334,6.359c0,3.757,1.761,6.463,5.334,6.463C545.189,123.275,546.005,123.091,546.688,122.776"/>
<path d="M559.898,119.466v-11.877h3.574v11.456c0,2.549,1.235,4.151,3.757,4.151c2.654,0,3.652-1.759,3.652-4.151v-11.456h3.573
	v11.692c0,4.231-2.47,7.148-7.278,7.148C562.711,126.429,559.898,123.986,559.898,119.466"/>
<polygon points="585.775,122.908 595.498,122.908 595.498,126.14 582.202,126.14 582.202,107.589 595.156,107.589 595.156,110.821 
	585.775,110.821 585.775,114.92 594.211,114.92 594.211,118.151 585.775,118.151 "/>
<path d="M601.431,120.543l3.573-0.762c0.315,2.128,1.577,3.547,4.152,3.547c2.075,0,3.258-0.92,3.258-2.365
	c0-3.783-10.379-1.55-10.379-8.303c0-3.389,2.627-5.36,6.937-5.36c3.522,0,6.229,1.787,6.753,4.808l-3.337,1.052
	c-0.446-1.656-1.551-2.838-3.626-2.838c-1.865,0-3.074,0.736-3.074,1.997c0,3.626,10.379,1.235,10.379,8.46
	c0,3.443-2.339,5.65-6.937,5.65C604.952,126.429,601.903,124.458,601.431,120.543"/>
<path d="M467.669,161.439l-1.498-3.941h-7.042l-1.471,3.941h-3.679l7.068-18.551h3.285l7.119,18.551H467.669z M460.312,154.318
	h4.678l-2.364-6.228L460.312,154.318z"/>
<path d="M475.783,152.296c0-5.886,3.416-9.696,8.986-9.696c3.862,0,6.701,1.813,7.804,4.914l-3.337,1.024
	c-0.735-1.682-2.181-2.732-4.414-2.732c-3.416,0-5.387,2.47-5.387,6.358c0,3.758,1.865,6.358,5.387,6.358
	c2.496,0,4.125-1.287,4.65-3.389l3.521,0.577c-0.814,3.837-3.837,6.018-8.225,6.018C479.067,161.729,475.783,158.05,475.783,152.296
	"/>
<polygon points="511.54,142.889 511.54,146.121 506.495,146.121 506.495,161.439 502.922,161.439 502.922,146.121 497.877,146.121 
	497.877,142.889 "/>
<path d="M517.867,154.766v-11.877h3.574v11.456c0,2.549,1.234,4.152,3.757,4.152c2.654,0,3.652-1.761,3.652-4.152v-11.456h3.573
	v11.692c0,4.23-2.47,7.147-7.278,7.147C520.68,161.729,517.867,159.285,517.867,154.766"/>
<polygon points="543.744,158.208 553.467,158.208 553.467,161.439 540.171,161.439 540.171,142.889 553.125,142.889 
	553.125,146.121 543.744,146.121 543.744,150.22 552.18,150.22 552.18,153.452 543.744,153.452 "/>
<polygon points="564.05,158.208 573.036,158.208 573.036,161.439 560.477,161.439 560.477,142.889 564.05,142.889 "/>
<polygon points="582.991,158.208 591.978,158.208 591.978,161.439 579.418,161.439 579.418,142.889 582.991,142.889 "/>
<polygon points="601.932,158.208 611.654,158.208 611.654,161.439 598.358,161.439 598.358,142.889 611.313,142.889 
	611.313,146.121 601.932,146.121 601.932,150.22 610.367,150.22 610.367,153.452 601.932,153.452 "/>
<path d="M617.587,155.843l3.573-0.762c0.315,2.128,1.577,3.547,4.151,3.547c2.076,0,3.259-0.92,3.259-2.365
	c0-3.783-10.379-1.55-10.379-8.303c0-3.39,2.627-5.36,6.937-5.36c3.522,0,6.228,1.787,6.753,4.808l-3.337,1.052
	c-0.446-1.655-1.551-2.838-3.626-2.838c-1.865,0-3.074,0.736-3.074,1.997c0,3.626,10.379,1.235,10.379,8.461
	c0,3.442-2.339,5.649-6.937,5.649C621.108,161.729,618.06,159.758,617.587,155.843"/>
<path d="M459.418,82.851v4.756h9.723v3.232h-13.296V72.288H468.8v3.232h-9.382v4.099h8.435v3.232H459.418z M464.096,70.869H461.1
	l1.761-3.915h3.89L464.096,70.869z"/>
<rect x="416.888" y="50.056" width="3.5" height="133.9"/>
</svg>
