<?xml version="1.0" encoding="utf-8"?>
<!-- Generator: Adobe Illustrator 16.0.0, SVG Export Plug-In . SVG Version: 6.00 Build 0)  -->
<!DOCTYPE svg PUBLIC "-//W3C//DTD SVG 1.1//EN" "http://www.w3.org/Graphics/SVG/1.1/DTD/svg11.dtd">
<svg version="1.1" id="Layer_1" xmlns="http://www.w3.org/2000/svg" xmlns:xlink="http://www.w3.org/1999/xlink" x="0px" y="0px"
	 width="69.875px" height="69.875px" viewBox="14.119 14.618 69.875 69.875"
	 style="enable-background:new 14.119 14.618 69.875 69.875;" xml:space="preserve">
<style type="text/css">
<![CDATA[
	.st0{fill:#FFFFFF;}
]]>
</style>
<g>
	<path class="st0" d="M49.046,40.28c-5.102,0-9.244,4.163-9.244,9.265c0,5.122,4.142,9.263,9.244,9.263
		c5.124,0,9.265-4.142,9.265-9.263C58.311,44.443,54.169,40.28,49.046,40.28z"/>
	<path class="st0" d="M59.645,31.852H38.469c-3.925,0-7.118,3.191-7.118,7.117v21.175c0,3.924,3.192,7.116,7.118,7.116h21.176
		c3.925,0,7.117-3.192,7.117-7.116V38.969C66.762,35.043,63.571,31.852,59.645,31.852z M49.045,62.494
		c-7.14,0-12.949-5.788-12.949-12.949c0-7.14,5.809-12.949,12.949-12.949c7.162,0,12.949,5.809,12.949,12.949
		C61.994,56.706,56.208,62.493,49.045,62.494z M61.75,39.013c-1.153,0-2.084-0.932-2.084-2.085c0-1.153,0.931-2.084,2.084-2.084
		c1.152,0,2.085,0.932,2.085,2.084C63.835,38.082,62.903,39.013,61.75,39.013z"/>
	<path class="st0" d="M49.057,14.618c-19.295,0-34.938,15.642-34.938,34.938s15.642,34.938,34.938,34.938
		s34.937-15.642,34.937-34.938S68.352,14.618,49.057,14.618z M71.009,61.133c0,5.696-4.653,10.374-10.375,10.374H37.48
		c-5.697,0-10.376-4.678-10.376-10.374V37.98c0-5.722,4.679-10.376,10.376-10.376h23.154c5.72,0,10.374,4.654,10.375,10.376V61.133z
		"/>
</g>
</svg>
