<?xml version="1.0" encoding="utf-8"?>
<!-- Generator: Adobe Illustrator 16.0.0, SVG Export Plug-In . SVG Version: 6.00 Build 0)  -->
<!DOCTYPE svg PUBLIC "-//W3C//DTD SVG 1.1//EN" "http://www.w3.org/Graphics/SVG/1.1/DTD/svg11.dtd">
<svg version="1.1" id="Layer_1" xmlns="http://www.w3.org/2000/svg" xmlns:xlink="http://www.w3.org/1999/xlink" x="0px" y="0px"
	 width="36.913px" height="36.912px" viewBox="0 0 36.913 36.912" enable-background="new 0 0 36.913 36.912" xml:space="preserve">
<g>
	<circle fill="#FFFFFF" cx="18.457" cy="18.456" r="18.457"/>
	<g>
		<path fill="#010101" d="M16.367,4.586h-1.521L13.819,8.53l-1.066-3.944h-1.584c0.316,0.931,0.647,1.866,0.964,2.798
			c0.482,1.4,0.784,2.457,0.92,3.178v4.068h1.505v-4.068L16.367,4.586z M20.388,12.206V9.585c0-0.801-0.138-1.385-0.422-1.764
			c-0.376-0.511-0.902-0.768-1.583-0.768c-0.675,0-1.203,0.257-1.579,0.768c-0.289,0.379-0.425,0.963-0.425,1.764v2.621
			c0,0.796,0.136,1.386,0.425,1.762c0.376,0.51,0.904,0.767,1.579,0.767c0.681,0,1.207-0.257,1.583-0.767
			C20.25,13.592,20.388,13.002,20.388,12.206z M19.03,12.462c0,0.692-0.21,1.039-0.647,1.039c-0.437,0-0.647-0.347-0.647-1.039
			V9.313c0-0.693,0.211-1.038,0.647-1.038c0.438,0,0.647,0.345,0.647,1.038V12.462z M25.403,14.63V7.145h-1.356v5.722
			c-0.302,0.424-0.587,0.635-0.857,0.635c-0.183,0-0.288-0.107-0.317-0.317c-0.017-0.044-0.017-0.21-0.017-0.528V7.145h-1.353v5.919
			c0,0.528,0.046,0.887,0.121,1.113c0.135,0.379,0.436,0.558,0.873,0.558c0.495,0,1.009-0.302,1.55-0.921v0.816H25.403z"/>
		<path fill="#010101" d="M29.797,23.716c0,1.73-0.001,3.568-0.39,5.249c-0.271,1.181-1.236,2.052-2.399,2.182
			c-2.755,0.308-5.543,0.31-8.317,0.308c-2.775,0.002-5.562,0-8.316-0.308c-1.163-0.13-2.13-1.001-2.399-2.182
			c-0.387-1.681-0.387-3.519-0.387-5.249c0-1.734,0.003-3.568,0.391-5.251c0.271-1.181,1.237-2.053,2.4-2.182
			c2.754-0.31,5.542-0.31,8.316-0.31s5.562,0,8.316,0.31c1.164,0.129,2.13,1.001,2.4,2.182
			C29.799,20.147,29.797,21.981,29.797,23.716z"/>
		<path fill="#FFFFFF" d="M13.922,19.979v-1.4h-4.68v1.4h1.579v8.541h1.493v-8.541H13.922z M16.634,28.52v-0.808
			c-0.532,0.612-1.04,0.91-1.533,0.91c-0.433,0-0.731-0.175-0.864-0.551c-0.074-0.226-0.118-0.578-0.118-1.102v-5.857h1.341v5.454
			c0,0.313,0,0.479,0.012,0.521c0.034,0.208,0.136,0.313,0.314,0.313c0.27,0,0.552-0.207,0.849-0.627v-5.662h1.344v7.407H16.634z
			 M21.734,26.403c0,0.67-0.197,0.998-0.584,0.998c-0.221,0-0.444-0.105-0.669-0.328v-4.517c0.225-0.222,0.448-0.327,0.669-0.327
			c0.387,0,0.584,0.344,0.584,1.012V26.403z M23.076,26.298v-2.951c0-0.699-0.046-1.191-0.135-1.488
			c-0.18-0.555-0.538-0.836-1.073-0.836c-0.493,0-0.953,0.271-1.387,0.803v-3.247H19.14v9.941h1.342v-0.718
			c0.448,0.555,0.908,0.82,1.387,0.82c0.535,0,0.894-0.281,1.073-0.832C23.03,27.476,23.076,26.983,23.076,26.298z M26.801,23.943
			h-1.342v-0.686c0-0.685,0.225-1.028,0.673-1.028c0.443,0,0.669,0.344,0.669,1.028V23.943z M28.143,26.149v-0.195h-1.37
			c0,0.539-0.017,0.836-0.028,0.909c-0.078,0.358-0.271,0.538-0.601,0.538c-0.46,0-0.685-0.342-0.685-1.027v-1.312h2.684v-1.534
			c0-0.793-0.135-1.372-0.416-1.745c-0.376-0.508-0.91-0.76-1.583-0.76c-0.685,0-1.222,0.252-1.607,0.76
			c-0.286,0.373-0.415,0.952-0.415,1.745v2.596c0,0.784,0.146,1.37,0.431,1.739c0.388,0.506,0.922,0.76,1.625,0.76
			c0.701,0,1.252-0.266,1.624-0.803c0.162-0.237,0.267-0.508,0.312-0.804C28.126,26.88,28.143,26.581,28.143,26.149z"/>
	</g>
</g>
</svg>
